<svg viewBox="0 0 181 40" fill="none" xmlns="http://www.w3.org/2000/svg">
    <path d="M137.033 32.3435H137.26C137.8 32.3435 138.239 32.781 138.239 33.3194V34.7852C138.239 35.3236 137.8 35.7611 137.26 35.7611H137.033C136.493 35.7611 136.055 35.3236 136.055 34.7852V33.3194C136.055 32.781 136.493 32.3435 137.033 32.3435Z" fill="#22833F"/>
    <path fill-rule="evenodd" clip-rule="evenodd" d="M99.2593 34.7707H100.525L99.896 33.009L99.2593 34.7707Z" fill="#22833F"/>
    <path d="M80.4107 32.3435H80.1826C79.6422 32.3435 79.2041 32.7804 79.2041 33.3194V34.7852C79.2041 35.3242 79.6422 35.7611 80.1826 35.7611H80.4107C80.951 35.7611 81.3891 35.3242 81.3891 34.7852V33.3194C81.3891 32.7804 80.951 32.3435 80.4107 32.3435Z" fill="#22833F"/>
    <path d="M118.588 32.3435H118.36C117.819 32.3435 117.381 32.7804 117.381 33.3194V34.7852C117.381 35.3242 117.819 35.7611 118.36 35.7611H118.588C119.128 35.7611 119.566 35.3242 119.566 34.7852V33.3194C119.566 32.7804 119.128 32.3435 118.588 32.3435Z" fill="#22833F"/>
    <path fill-rule="evenodd" clip-rule="evenodd" d="M178.04 28.0032H47.4464C45.812 28.0032 44.4868 29.3215 44.4868 30.9482V37.0292C44.4868 38.6559 45.812 39.9743 47.4464 39.9743H178.039C179.674 39.9743 180.999 38.6559 180.999 37.0292V30.9482C180.999 29.3215 179.674 28.0032 178.039 28.0032H178.04ZM62.3896 37.2117C60.777 37.2117 59.4785 35.8567 59.4785 33.9883C59.4785 32.1199 60.7444 30.7649 62.454 30.7649C63.6071 30.7649 64.3248 31.3141 64.8245 32.0758L63.6798 33.05C63.3572 32.6075 62.9787 32.3324 62.4381 32.3324C61.6477 32.3324 61.0912 33.0675 61.0912 33.9883C61.0912 34.9092 61.6477 35.6442 62.4381 35.6442C63.0263 35.6442 63.3731 35.3434 63.7123 34.8917L64.8897 35.8125C64.3574 36.6184 63.6397 37.2117 62.3896 37.2117ZM73.7943 32.5183H72.1006V37.2117H70.5364V32.5183H68.8427V31.0133H73.7934V32.5183H73.7943ZM82.8468 34.7825C82.8468 35.4517 82.5736 36.06 82.1324 36.5001H82.1265C81.6862 36.9392 81.0779 37.2126 80.4103 37.2126H80.183C79.5162 37.2126 78.9079 36.9392 78.4668 36.5001L78.4609 36.4942C78.0206 36.0542 77.7465 35.4484 77.7465 34.7825V33.3166C77.7465 32.6508 78.0206 32.0449 78.4609 31.6049V31.5991C78.9021 31.1591 79.5112 30.8866 80.183 30.8866H80.4103C81.0821 30.8866 81.6912 31.1591 82.1324 31.5991C82.5736 32.0391 82.8468 32.6466 82.8468 33.3166V34.7825ZM92.7992 37.2117H91.2426V33.6525L90.1505 35.8767H89.416L88.3323 33.6708V37.2126H86.7999V31.0141H88.4526L89.7995 33.8017L91.1465 31.0141H92.7992V37.2126V37.2117ZM101.389 37.2117L100.978 36.1051H98.8002L98.3967 37.2117H96.7514L99.1545 30.9691H100.663L103.066 37.2117H101.389ZM111.97 32.5183H110.277V37.2117H108.713V32.5183H107.019V31.0133H111.97V32.5183H111.97ZM121.023 34.7825C121.023 35.4517 120.75 36.06 120.309 36.5001H120.303C119.862 36.9392 119.254 37.2126 118.586 37.2126H118.359C117.692 37.2126 117.084 36.9392 116.644 36.5001L116.638 36.4942C116.198 36.0542 115.924 35.4484 115.924 34.7825V33.3166C115.924 32.6508 116.198 32.0449 116.638 31.6049V31.5991C117.079 31.1591 117.688 30.8866 118.36 30.8866H118.587C119.259 30.8866 119.868 31.1591 120.309 31.5991C120.751 32.0391 121.024 32.6466 121.024 33.3166V34.7825H121.023ZM130.644 37.1234H129.08V32.43H127.766V32.6691C127.766 36.4501 127.008 37.2117 125.911 37.2117C125.5 37.2117 125.096 37.1142 124.976 37.0701L125.08 35.7509C125.153 35.7684 125.37 35.7867 125.443 35.7867C125.887 35.7867 126.306 35.5392 126.306 31.7841V30.9249H130.644V37.1234ZM139.697 34.7825C139.697 35.4517 139.424 36.06 138.983 36.5001H138.977C138.536 36.9392 137.928 37.2126 137.261 37.2126H137.033C136.366 37.2126 135.758 36.9392 135.317 36.5001L135.311 36.4942C134.871 36.0542 134.597 35.4484 134.597 34.7825V33.3166C134.597 32.6508 134.871 32.0449 135.311 31.6049V31.5991C135.752 31.1591 136.361 30.8866 137.032 30.8866H137.26C137.931 30.8866 138.541 31.1591 138.982 31.5991C139.423 32.0391 139.696 32.6466 139.696 33.3166V34.7825H139.697ZM147.715 32.5183H145.215V37.2117H143.651V31.0133H147.715V32.5183ZM156.86 37.2117H155.312V33.7233L153.127 37.2117H151.667V31.0133H153.216V34.5025L155.401 31.0133H156.86V37.2117ZM166.008 37.2117H164.444V35.3342H163.759L162.622 37.2117H160.815L162.162 35.0509C161.46 34.7233 161.001 34.0942 161.001 33.1291C161.001 31.6766 162.057 31.0124 163.339 31.0124H166.008V37.2109V37.2117Z" fill="#22833F"/>
    <path fill-rule="evenodd" clip-rule="evenodd" d="M162.572 33.2531C162.572 33.7047 162.879 34.0147 163.411 34.0147H164.443V32.4739H163.42C162.896 32.4739 162.573 32.748 162.573 33.2531H162.572Z" fill="#22833F"/>
    <path fill-rule="evenodd" clip-rule="evenodd" d="M118.459 9.28833H125.848V12.0584H118.459V9.28833Z" fill="#22833F"/>
    <path fill-rule="evenodd" clip-rule="evenodd" d="M132.435 14.9906C132.518 13.8806 135.727 4.39453 136.215 3.75285C136.789 4.18036 139.593 13.6064 140.056 14.984L132.435 14.9906ZM130.046 17.6049L142.325 17.6557L142.333 21.2708L145.325 21.2491L145.291 15.0006L143.509 14.9798C142.212 11.7839 140.958 8.27964 139.792 4.92205C139.127 3.00616 138.665 -0.0314219 136.217 0.000245629C133.466 0.0352465 133.374 2.76448 132.587 4.88454L128.808 14.9873L127.231 14.9931L127.25 21.2625L129.967 21.255L130.046 17.6049Z" fill="#22833F"/>
    <path fill-rule="evenodd" clip-rule="evenodd" d="M44.2808 0.151855V5.38616C44.2808 7.44621 44.3242 8.99626 44.5665 9.4521C45.1272 10.5096 46.9161 10.6346 48.7987 10.6405C50.2601 10.6446 51.7858 10.6163 52.7902 10.6405L52.7509 14.9864L44.5164 14.9889L44.488 17.6131C46.6095 17.6131 49.5833 17.6073 51.7098 17.6073C54.7003 17.6073 55.8366 17.7123 55.8333 14.4856C55.8283 9.77795 55.9636 4.90448 55.8249 0.153524H52.7977L52.7735 7.98123L47.318 7.93373L47.2963 0.15269H44.2808V0.151855Z" fill="#22833F"/>
    <path fill-rule="evenodd" clip-rule="evenodd" d="M96.6281 7.78013H100.938C101.39 7.78013 101.302 7.7218 101.303 8.18681C101.309 10.1902 101.303 13.0011 101.303 14.9087C101.303 15.287 101.364 15.2262 100.984 15.2262H96.6281V7.78096V7.78013ZM96.6707 17.6387C98.0711 17.5254 101.487 17.8079 102.533 17.4871C104.457 16.8979 104.058 15.0945 104.059 13.0303C104.061 6.11092 104.867 5.16423 100.052 5.16256C93.5023 5.16089 93.8641 4.42421 93.8632 10.861C93.8632 14.432 93.8632 19.0488 93.8632 22.6014L96.6264 22.613L96.6699 17.6387H96.6707Z" fill="#22833F"/>
    <path fill-rule="evenodd" clip-rule="evenodd" d="M149.626 10.3975L149.655 7.78579H153.732C154.023 7.78579 153.991 7.72912 153.991 8.00663V10.1084C153.991 10.4575 154.045 10.3975 153.694 10.3975C152.504 10.3975 150.586 10.3975 149.625 10.3975H149.626ZM146.626 8.50414L146.623 14.6668C146.63 17.3569 147.439 17.616 150.027 17.6094C152.113 17.6035 154.31 17.6794 156.381 17.5852L156.402 15.2327H149.626C149.626 14.5976 149.623 13.4309 149.626 12.7601C154.335 12.6351 156.652 13.4093 156.726 10.5067C156.777 8.49748 157.076 6.20492 155.623 5.46573C154.632 4.96155 151.024 5.15572 149.663 5.17072C147.068 5.19989 146.626 5.99658 146.625 8.50498L146.626 8.50414Z" fill="#22833F"/>
    <path fill-rule="evenodd" clip-rule="evenodd" d="M109.718 12.4929C110.818 12.4946 112.276 12.5004 113.346 12.4929C113.342 13.3363 113.342 14.5255 113.342 15.1555H109.771C108.982 15.1155 108.993 15.1097 108.965 14.318C108.953 13.9655 108.962 13.478 108.983 13.0663C109.019 12.3763 109.018 12.4921 109.719 12.4929H109.718ZM106.864 7.78615H113.342V9.92204C111.757 9.93204 110.535 9.92204 109.581 9.92204C106.466 9.92204 106.277 10.1954 106.266 14.4863C106.26 16.7831 106.53 17.5981 108.957 17.6131C112.731 17.6356 115.679 18.3023 116.095 15.9964L116.145 7.42198C115.994 5.17942 114.995 5.14442 112.591 5.14442C111.261 5.14192 107.998 5.14442 106.848 5.14442L106.865 7.78615H106.864Z" fill="#22833F"/>
    <path fill-rule="evenodd" clip-rule="evenodd" d="M161.857 12.5002L166.175 12.5052L166.193 17.5954L168.98 17.6087L168.981 5.16504H166.173L166.172 9.98517L161.837 9.98267L161.836 5.16504L159.04 5.17337L159.033 17.6129L161.847 17.5645L161.855 13.9369L161.857 12.5002Z" fill="#22833F"/>
    <path fill-rule="evenodd" clip-rule="evenodd" d="M78.5732 13.7778V14.9553C78.5732 15.1478 78.4152 15.3045 78.223 15.3045H76.3831C76.3096 15.3045 76.2361 15.3045 76.1634 15.3045H74.4638C74.2708 15.3045 74.1137 15.147 74.1137 14.9553V12.7836C74.1137 12.5911 74.2708 12.4344 74.4638 12.4344H78.2222C78.4152 12.4344 78.5723 12.5911 78.5723 12.7836V13.7778H78.5732ZM71.3037 5.17921C71.3037 7.08176 71.3004 12.3027 71.3037 14.4803C71.3054 15.8095 71.2887 17.2379 72.9891 17.5395C74.0845 17.7337 76.3046 17.6062 77.5178 17.607C79.0369 17.6079 80.6228 17.7995 81.1442 16.4762C81.4191 15.777 81.4082 13.0186 81.3238 12.1211C81.1467 10.236 79.9953 9.91683 78.0493 9.91683C76.963 9.91683 75.6378 9.9285 74.1171 9.90683L74.1154 5.16504L71.3046 5.18004L71.3037 5.17921Z" fill="#22833F"/>
    <path fill-rule="evenodd" clip-rule="evenodd" d="M60.4941 17.6134C60.5902 17.235 63.6024 8.66481 63.7069 8.54064L67.3416 17.6017L70.0731 17.595L67.5881 10.6157L66.2645 7.22311C65.7849 6.01141 65.4749 5.07888 63.8907 5.02888C62.6591 4.98971 61.8536 5.84391 61.3656 7.17061L60.0788 10.6699L57.6265 17.6125H60.495L60.4941 17.6134Z" fill="#22833F"/>
    <path fill-rule="evenodd" clip-rule="evenodd" d="M81.5861 7.71529L85.403 7.72112L85.4205 17.6155H88.355L88.3818 7.71779L92.2003 7.70445L92.131 5.15771L81.5728 5.16022L81.5861 7.71529Z" fill="#22833F"/>
    <path fill-rule="evenodd" clip-rule="evenodd" d="M170.613 7.71112L174.439 7.71362L174.436 17.613H177.203L177.209 7.71611L180.999 7.71362V5.15771L170.613 5.16605V7.71112Z" fill="#22833F"/>
    <path fill-rule="evenodd" clip-rule="evenodd" d="M21.3031 0.780039C21.3031 0.780039 9.77065 -1.70086 4.26594 2.27758C-1.2396 6.25601 -0.690635 13.1554 1.8545 22.0131C4.39963 30.8717 7.33414 35.6935 8.69945 36.4693C10.0648 37.2452 10.6873 37.021 11.9983 35.6876C13.3093 34.3534 14.4807 30.7958 16.2555 30.4525C18.0302 30.1091 20.0164 31.3692 21.2012 34.7576C22.3852 38.146 22.864 38.5702 23.9811 39.4986C25.0983 40.4269 29.5326 41.4153 32.8306 29.2133C36.1286 17.0113 38.9787 7.85272 34.9964 3.62345C31.3299 -0.269989 25.4291 1.5234 22.7762 2.35925C20.5745 3.0526 18.8733 3.67929 17.7361 4.24263C16.8387 4.68765 14.5183 6.09935 14.5183 6.09935C14.5183 6.09935 15.7466 4.49931 17.6024 3.1151C19.8777 1.41922 21.304 0.778376 21.304 0.778376L21.3031 0.780039Z" fill="#22833F"/>
    <path fill-rule="evenodd" clip-rule="evenodd" d="M29.8487 12.4176L29.3005 11.185C29.3005 11.185 29.298 11.1792 29.2955 11.1759C29.2797 11.1475 29.2504 11.0925 29.2245 11.0542C29.2245 12.0301 29.7985 14.0776 28.7014 15.9202C26.9501 18.8627 23.1608 16.0277 19.3038 16.9235C17.9544 17.2369 16.6526 18.2202 16.2682 19.4553C16.2406 19.5436 16.3117 19.6319 16.4044 19.6261C17.4673 19.5519 19.0131 19.0961 21.1279 20.1269C24.1668 21.6095 24.3273 25.5504 23.7073 28.4997C23.2895 30.4905 22.5625 31.7206 22.2876 32.5698C22.2534 32.6739 22.3553 32.7706 22.4598 32.7348C23.8702 32.2523 25.9307 30.3372 26.7654 29.3539C30.1386 25.3787 31.7379 19.2869 30.2957 13.9768C30.1495 13.4376 29.9941 12.8626 29.8537 12.4309C29.852 12.4267 29.8503 12.4217 29.8487 12.4176Z" fill="white"/>
    <path fill-rule="evenodd" clip-rule="evenodd" d="M14.5851 16.2118C15.3647 16.081 16.7459 15.8801 17.6132 16.1643C17.7109 16.196 17.8079 16.1126 17.787 16.0118C17.4511 14.3976 15.1132 13.2534 13.2198 13.2534C9.60261 13.2534 5.14153 16.076 4.7062 9.58747C4.6686 9.02245 4.82986 8.54244 4.93848 8.00159C4.96856 7.85159 4.76218 7.77824 4.69032 7.91325C4.66776 7.95492 4.64269 8.00409 4.61345 8.06159C3.77872 9.7208 3.58821 12.0842 3.35676 13.7976C2.83369 17.6627 4.68698 22.8328 7.26219 25.7804C8.70605 27.4329 9.59175 28.218 11.5921 29.2946C11.689 29.3471 11.806 29.2655 11.7885 29.1563C11.6915 28.5571 11.4626 28.3455 11.2462 27.7921C9.6118 23.6045 8.9634 17.151 14.5851 16.2101V16.2118Z" fill="white"/>
    <path fill-rule="evenodd" clip-rule="evenodd" d="M10.6657 11.9164C14.7641 10.9363 14.0514 6.26538 11.2188 6.26538H10.2186C8.93604 6.26538 7.21729 7.70542 7.21729 9.05879C7.21729 11.6005 9.12321 12.2847 10.6657 11.9164Z" fill="white"/>
    <path fill-rule="evenodd" clip-rule="evenodd" d="M25.9818 14.8017C28.4392 12.7999 26.0637 9.6582 23.4258 9.6582C22.058 9.6582 20.625 10.5366 20.625 11.8533C20.625 15.2483 24.2497 16.2134 25.9826 14.8017H25.9818Z" fill="white"/>
    <path fill-rule="evenodd" clip-rule="evenodd" d="M35.157 6.93684C34.2321 1.70504 26.4947 3.01757 23.2903 4.93595C23.1592 5.01429 23.2427 5.21513 23.3914 5.1793C23.8201 5.07596 24.1468 4.91678 24.7417 4.78678C26.8031 4.33594 29.6298 4.20843 31.3034 4.99345C34.1034 6.30682 34.4059 8.47438 34.4276 11.4236C34.4284 11.5628 34.6148 11.607 34.6799 11.4845C34.9331 11.0069 35.0401 10.4053 35.1529 9.78192C35.3091 8.92189 35.3108 7.80186 35.1579 6.93684H35.157Z" fill="white"/>
</svg>